<svg width="15" height="15" viewBox="0 0 15 15" fill="none" xmlns="http://www.w3.org/2000/svg">
<g id="vuesax/bold/bag">
<g id="bag">
<path id="Vector" d="M11.9998 3.4045H11.7661L9.79193 1.43029C9.63423 1.27259 9.37723 1.27259 9.21369 1.43029C9.05598 1.58799 9.05598 1.84499 9.21369 2.00853L10.6097 3.4045H4.93233L6.3283 2.00853C6.486 1.85083 6.486 1.59383 6.3283 1.43029C6.1706 1.27259 5.9136 1.27259 5.75006 1.43029L3.78168 3.4045H3.54805C3.02237 3.4045 1.93013 3.4045 1.93013 4.89976C1.93013 5.46633 2.04695 5.84014 2.29226 6.08546C2.43244 6.23148 2.60183 6.30741 2.7829 6.3483C2.95228 6.38918 3.13335 6.39502 3.30857 6.39502H12.2334C12.4145 6.39502 12.5839 6.38334 12.7474 6.3483C13.238 6.23148 13.6119 5.88103 13.6119 4.89976C13.6119 3.4045 12.5196 3.4045 11.9998 3.4045Z" fill="black"/>
<path id="Vector_2" d="M11.8888 7.15479H3.60648C3.24434 7.15479 2.96982 7.47603 3.02823 7.83233L3.51886 10.8345C3.68241 11.8392 4.12047 12.9956 6.06548 12.9956H9.3422C11.3106 12.9956 11.661 12.0085 11.8713 10.9046L12.4612 7.84985C12.5313 7.48771 12.2568 7.15479 11.8888 7.15479ZM6.95913 10.9221C6.95913 11.1499 6.77806 11.331 6.55611 11.331C6.32832 11.331 6.14725 11.1499 6.14725 10.9221V8.99466C6.14725 8.7727 6.32832 8.5858 6.55611 8.5858C6.77806 8.5858 6.95913 8.7727 6.95913 8.99466V10.9221ZM9.45902 10.9221C9.45902 11.1499 9.27796 11.331 9.05016 11.331C8.82821 11.331 8.6413 11.1499 8.6413 10.9221V8.99466C8.6413 8.7727 8.82821 8.5858 9.05016 8.5858C9.27796 8.5858 9.45902 8.7727 9.45902 8.99466V10.9221Z" fill="black"/>
</g>
</g>
</svg>
