<svg width="98" height="26" viewBox="0 0 98 26" fill="none" xmlns="http://www.w3.org/2000/svg">
<g id="Svg Logo Kingly 2" clip-path="url(#clip0_1_3533)">
<g id="Layer 2">
<g id="Layer 1">
<path id="Vector" d="M41.1846 12.795C41.0861 12.6761 41.0323 12.5266 41.0323 12.3723C41.0323 12.2179 41.0861 12.0684 41.1846 11.9495L44.9903 7.32385C45.1411 7.14059 45.2368 6.91824 45.2662 6.6827C45.2956 6.44715 45.2574 6.20811 45.1562 5.99341C45.055 5.7787 44.8948 5.59718 44.6944 5.46997C44.494 5.34277 44.2616 5.27512 44.0242 5.2749H42.7733C42.5793 5.27497 42.388 5.32003 42.2143 5.40653C42.0407 5.49304 41.8895 5.61863 41.7726 5.77344L37.987 10.8027C37.9494 10.8519 37.8973 10.888 37.8381 10.9059C37.7789 10.9237 37.7155 10.9225 37.657 10.9022C37.5986 10.882 37.548 10.8438 37.5124 10.7932C37.4769 10.7425 37.4583 10.6819 37.4592 10.6201V6.52947C37.4592 6.36472 37.4267 6.20158 37.3637 6.04937C37.3006 5.89716 37.2082 5.75886 37.0917 5.64236C36.9752 5.52586 36.8369 5.43345 36.6847 5.3704C36.5325 5.30735 36.3694 5.2749 36.2046 5.2749H35.255C35.0902 5.27466 34.927 5.30695 34.7746 5.36991C34.6223 5.43288 34.4839 5.52528 34.3674 5.64182C34.2508 5.75837 34.1584 5.89677 34.0955 6.04909C34.0325 6.20141 34.0002 6.36465 34.0005 6.52947V18.2169C34.0005 18.3815 34.0329 18.5446 34.096 18.6967C34.1591 18.8488 34.2515 18.987 34.368 19.1033C34.4845 19.2197 34.6229 19.3119 34.7751 19.3748C34.9273 19.4376 35.0904 19.4699 35.255 19.4696H36.2046C36.537 19.4696 36.8559 19.3377 37.0911 19.1028C37.3263 18.8679 37.4587 18.5493 37.4592 18.2169V14.0715C37.4583 14.0096 37.4769 13.9491 37.5124 13.8984C37.548 13.8477 37.5986 13.8096 37.657 13.7893C37.7155 13.7691 37.7789 13.7678 37.8381 13.7857C37.8973 13.8036 37.9494 13.8397 37.987 13.8889L41.8548 18.9711C41.9718 19.1245 42.1226 19.2488 42.2956 19.3343C42.4685 19.4199 42.6589 19.4643 42.8518 19.4641H44.0242C44.2619 19.4642 44.4947 19.3967 44.6955 19.2694C44.8962 19.1421 45.0566 18.9603 45.1579 18.7453C45.2592 18.5302 45.2972 18.2908 45.2675 18.055C45.2379 17.8191 45.1417 17.5966 44.9903 17.4134L41.1846 12.795Z" fill="white" fill-opacity="0.77"/>
<path id="Vector_2" d="M49.2231 9.90674H48.3209C47.6142 9.90674 47.0426 10.3925 47.0426 10.9896V18.3874C47.0426 18.9846 47.6142 19.4703 48.3209 19.4703H49.2231C49.928 19.4703 50.5014 18.9846 50.5014 18.3874V10.9896C50.4995 10.3925 49.928 9.90674 49.2231 9.90674Z" fill="white" fill-opacity="0.77"/>
<path id="Vector_3" d="M63.1476 16.877C62.7561 15.9161 62.5605 14.8867 62.5723 13.8492C62.567 13.0634 62.6759 12.2809 62.8956 11.5264C62.9763 11.2589 62.9647 10.972 62.8627 10.7119C62.8089 10.5755 62.7479 10.442 62.6801 10.312C62.3413 9.61816 61.8076 9.03814 61.1443 8.64287C60.4581 8.25136 59.6789 8.05261 58.889 8.06763C58.1823 8.05236 57.4832 8.21566 56.8565 8.54243C56.2847 8.84303 55.805 9.29301 55.4686 9.84448V9.4409C55.4688 9.27624 55.4366 9.11314 55.3737 8.96094C55.3109 8.80874 55.2187 8.67042 55.1023 8.5539C54.986 8.43738 54.8478 8.34494 54.6957 8.28187C54.5436 8.2188 54.3805 8.18633 54.2158 8.18633H53.2772C52.9448 8.18682 52.6261 8.31921 52.3913 8.55443C52.1564 8.78966 52.0245 9.10849 52.0245 9.4409V18.2174C52.0245 18.5497 52.1564 18.8683 52.3914 19.1032C52.6263 19.3382 52.9449 19.4702 53.2772 19.4702H54.2304C54.5602 19.4663 54.8751 19.3326 55.1068 19.0981C55.3386 18.8636 55.4686 18.5471 55.4686 18.2174V13.3434C55.4686 12.6129 55.6603 12.0505 56.0438 11.656C56.4291 11.2579 56.9569 11.0589 57.6326 11.0589C58.3083 11.0589 58.8342 11.2579 59.2195 11.656C59.6048 12.0541 59.7966 12.6148 59.7966 13.3434V18.2174C59.7966 18.5497 59.9286 18.8683 60.1635 19.1032C60.3984 19.3382 60.7171 19.4702 61.0493 19.4702H61.9807C62.3129 19.4702 62.6315 19.3382 62.8665 19.1032C63.1014 18.8683 63.2334 18.5497 63.2334 18.2174V17.3482C63.2352 17.1871 63.206 17.0271 63.1476 16.877Z" fill="white" fill-opacity="0.77"/>
<path id="Vector_4" d="M74.4272 8.18672H73.5872C73.4147 8.186 73.2438 8.21932 73.0842 8.28478C72.9246 8.35023 72.7795 8.44654 72.6572 8.56817C72.5348 8.6898 72.4377 8.83437 72.3714 8.9936C72.3051 9.15283 72.2708 9.32358 72.2705 9.49607C72.2711 9.50807 72.2678 9.51992 72.261 9.52982C72.2542 9.53971 72.2443 9.54709 72.2329 9.55083C72.2215 9.55456 72.2091 9.55445 72.1978 9.55049C72.1864 9.54654 72.1767 9.53897 72.1701 9.52895C71.4068 8.55499 70.3348 8.06802 68.9542 8.06802C68.0433 8.06084 67.1492 8.31429 66.3775 8.79848C65.5789 9.30017 64.9319 10.0097 64.5057 10.8511C64.0358 11.7777 63.8001 12.8054 63.8191 13.8442C63.8001 14.8824 64.0358 15.9094 64.5057 16.8354C64.9297 17.6759 65.5774 18.383 66.3775 18.8789C67.1505 19.3603 68.0437 19.6135 68.9542 19.6093C69.5294 19.6208 70.0996 19.5015 70.6218 19.2605C71.1441 19.0194 71.6048 18.6629 71.9692 18.2178C71.9921 18.1914 72.0224 18.1727 72.0562 18.164C72.09 18.1553 72.1257 18.1572 72.1584 18.1693C72.1911 18.1814 72.2194 18.2032 72.2394 18.2317C72.2595 18.2603 72.2703 18.2943 72.2705 18.3292V19.4048C72.2705 20.324 72.0618 20.9936 71.6442 21.4136C71.4395 21.623 71.1936 21.7878 70.922 21.8975C70.6505 22.0072 70.3591 22.0594 70.0664 22.0509C69.0437 22.0509 68.3248 21.7861 67.9097 21.2565C67.7875 21.1054 67.6326 20.9839 67.4568 20.901C67.281 20.8182 67.0887 20.7761 66.8943 20.7781H65.952C65.7232 20.7783 65.4985 20.8384 65.3001 20.9524C65.1018 21.0665 64.9367 21.2304 64.8213 21.4279C64.7059 21.6255 64.6442 21.8498 64.6424 22.0786C64.6405 22.3074 64.6985 22.5327 64.8107 22.7321C65.093 23.2343 65.4866 23.6654 65.9612 23.9921C66.9729 24.6921 68.3413 25.0428 70.0664 25.044C71.9948 25.044 73.4204 24.518 74.3432 23.4662C75.2661 22.4143 75.7317 21.0617 75.7402 19.4085V9.49607C75.74 9.32389 75.7058 9.15343 75.6397 8.99445C75.5736 8.83546 75.4768 8.69105 75.3549 8.56946C75.233 8.44788 75.0883 8.3515 74.9291 8.28583C74.77 8.22016 74.5994 8.18648 74.4272 8.18672ZM71.9236 15.3653C71.7096 15.7616 71.3864 16.088 70.9922 16.3058C70.6309 16.5075 70.2245 16.6149 69.8107 16.6181C69.393 16.6179 68.9824 16.5104 68.6182 16.3058C68.2329 16.0867 67.9166 15.7641 67.7052 15.3745C67.4515 14.9071 67.3255 14.3812 67.3399 13.8496C67.3265 13.3141 67.4523 12.7843 67.7052 12.312C67.9192 11.9165 68.2416 11.5902 68.6347 11.3715C68.997 11.1675 69.4058 11.0604 69.8217 11.0604C70.2375 11.0604 70.6463 11.1675 71.0087 11.3715C71.3929 11.5921 71.7088 11.9144 71.9217 12.3029C72.1697 12.7724 72.29 13.2989 72.2705 13.8295C72.2896 14.3629 72.1701 14.892 71.9236 15.3653Z" fill="white" fill-opacity="0.77"/>
<path id="Vector_5" d="M79.4561 4.50659H78.5047C78.1725 4.50659 77.8538 4.63858 77.6189 4.87351C77.384 5.10845 77.252 5.42709 77.252 5.75934V18.2174C77.252 18.5496 77.384 18.8683 77.6189 19.1032C77.8538 19.3381 78.1725 19.4701 78.5047 19.4701H79.4561C79.7884 19.4701 80.107 19.3381 80.342 19.1032C80.5769 18.8683 80.7089 18.5496 80.7089 18.2174V5.75934C80.7089 5.42709 80.5769 5.10845 80.342 4.87351C80.107 4.63858 79.7884 4.50659 79.4561 4.50659Z" fill="white" fill-opacity="0.77"/>
<path id="Vector_6" d="M91.2608 12.6895C90.2793 12.0437 89.5872 11.0419 89.3305 9.89545L87.8495 13.8783C87.8026 14.0023 87.7187 14.1089 87.609 14.1834C87.4994 14.258 87.3694 14.2969 87.2368 14.2949C87.1043 14.2929 86.9755 14.2501 86.8682 14.1723C86.7608 14.0944 86.6801 13.9854 86.637 13.86L84.9934 9.03898C84.9095 8.79112 84.7501 8.57576 84.5375 8.42314C84.3249 8.27051 84.0699 8.18828 83.8082 8.18799H82.6285C82.4238 8.18776 82.2222 8.23771 82.0413 8.33345C81.8603 8.4292 81.7056 8.56783 81.5906 8.73721C81.4757 8.90659 81.404 9.10156 81.3818 9.30507C81.3596 9.50858 81.3877 9.71442 81.4635 9.90458L84.9021 18.5715C85.0737 19.0058 85.0664 19.4903 84.882 19.9192L83.5161 23.1022C83.4341 23.2928 83.4008 23.5007 83.419 23.7073C83.4373 23.9139 83.5065 24.1127 83.6205 24.2859C83.7346 24.4592 83.8899 24.6014 84.0724 24.6998C84.255 24.7982 84.4591 24.8498 84.6665 24.8498H85.5614C85.8058 24.85 86.0449 24.7785 86.2491 24.6441C86.4533 24.5097 86.6135 24.3184 86.71 24.0938L91.5512 12.8885L91.2608 12.6895Z" fill="white" fill-opacity="0.77"/>
<path id="Vector_7" d="M92.876 11.2591C92.876 11.2591 95.4618 8.2898 90.8325 4.60645C90.8325 4.60645 88.6703 9.47133 92.2204 11.8581C92.2204 11.8581 93.0951 10.1616 91.5465 7.48995C91.5465 7.48812 93.4731 9.09149 92.876 11.2591Z" fill="white" fill-opacity="0.77"/>
<path id="Vector_8" d="M93.9115 6.99211C93.9115 6.99211 93.6741 4.45375 97.5017 4.27661C97.5017 4.27661 96.795 7.64587 94.032 7.56369C94.032 7.56369 94.2146 6.342 96.0408 5.5257C96.0353 5.5184 94.4191 5.62979 93.9115 6.99211Z" fill="white" fill-opacity="0.77"/>
<path id="Vector_9" d="M48.7714 8.39374C49.6075 8.39374 50.2852 7.71595 50.2852 6.87985C50.2852 6.04376 49.6075 5.36597 48.7714 5.36597C47.9353 5.36597 47.2575 6.04376 47.2575 6.87985C47.2575 7.71595 47.9353 8.39374 48.7714 8.39374Z" fill="white" fill-opacity="0.77"/>
<path id="Vector_10" d="M13.5061 0C10.9338 0 8.41925 0.762782 6.28044 2.19189C4.14163 3.62099 2.47463 5.65224 1.49025 8.02875C0.505864 10.4053 0.248304 13.0203 0.750139 15.5432C1.25197 18.0661 2.49067 20.3835 4.30957 22.2024C6.12848 24.0214 8.44591 25.26 10.9688 25.7619C13.4917 26.2637 16.1068 26.0062 18.4833 25.0218C20.8598 24.0374 22.891 22.3704 24.3201 20.2316C25.7492 18.0928 26.512 15.5782 26.512 13.0059C26.512 11.2979 26.1756 9.6067 25.522 8.02875C24.8684 6.45081 23.9104 5.01705 22.7027 3.80934C21.495 2.60163 20.0612 1.64362 18.4833 0.990015C16.9053 0.336407 15.2141 0 13.5061 0ZM13.5061 24.1381C11.3029 24.1381 9.14921 23.4848 7.31732 22.2608C5.48543 21.0368 4.05764 19.297 3.21452 17.2615C2.37139 15.226 2.15079 12.9862 2.58061 10.8254C3.01043 8.66451 4.07137 6.67963 5.62927 5.12173C7.18716 3.56383 9.17204 2.50289 11.3329 2.07307C13.4938 1.64325 15.7336 1.86385 17.7691 2.70698C19.8045 3.5501 21.5443 4.97789 22.7683 6.80978C23.9924 8.64167 24.6457 10.7954 24.6457 12.9986C24.6457 15.953 23.4721 18.7864 21.383 20.8754C19.2939 22.9645 16.4605 24.1381 13.5061 24.1381Z" fill="white" fill-opacity="0.77"/>
<path id="Vector_11" d="M13.5077 1.87549C11.3045 1.87549 9.15074 2.52881 7.31885 3.75284C5.48696 4.97687 4.05917 6.71663 3.21604 8.75212C2.37292 10.7876 2.15232 13.0274 2.58214 15.1883C3.01196 17.3491 4.0729 19.334 5.6308 20.8919C7.18869 22.4498 9.17357 23.5107 11.3344 23.9406C13.4953 24.3704 15.7351 24.1498 17.7706 23.3067C19.8061 22.4635 21.5458 21.0357 22.7699 19.2039C23.9939 17.372 24.6472 15.2182 24.6472 13.015C24.6472 10.0607 23.4736 7.22726 21.3845 5.13819C19.2954 3.04912 16.462 1.87549 13.5077 1.87549ZM11.3163 16.682C11.4913 16.7728 11.6748 16.8462 11.8641 16.9011C11.8641 16.9011 8.04562 17.5311 7.36994 11.7678C7.36994 11.7678 7.55256 11.7915 7.83561 11.8591H7.84657C9.10296 12.1476 12.412 13.2141 12.6804 16.4482C12.6804 16.5194 12.6804 16.5907 12.6932 16.6619C12.6932 16.6619 11.1921 16.545 9.85717 14.5983C9.6913 14.3571 9.53947 14.1065 9.40245 13.8478C9.40245 13.8478 9.68186 15.8456 11.3071 16.682H11.3163ZM13.0895 13.4205C13.0895 13.4205 12.4193 12.4398 13.0475 10.663C13.0858 10.5534 13.1296 10.442 13.1771 10.3288C13.1771 10.3288 12.0339 11.5505 12.5453 12.9621C12.5562 12.995 12.569 13.0278 12.5818 13.0607C12.5818 13.0607 10.5255 11.2236 13.4255 8.26339C13.4255 8.26339 14.8992 10.7123 13.7469 12.6462C13.7049 12.7174 13.6574 12.7904 13.6081 12.8617C13.5588 12.9329 13.5387 12.9548 13.5003 13.0004C13.4238 13.095 13.3421 13.1852 13.2556 13.2707C13.1954 13.3182 13.1388 13.3693 13.0803 13.4205H13.0895ZM13.4383 17.7411C13.6008 17.6535 13.756 17.5585 13.9076 17.4709C16.939 15.6118 17.8521 12.8434 17.9142 12.6644C17.7408 12.992 17.53 13.2985 17.286 13.5775C15.8579 15.221 13.4291 16.1159 13.4291 16.1159C13.4291 16.0574 13.4291 15.9972 13.4401 15.9332C13.5862 13.6159 14.8809 12.3759 16.2487 11.7112C17.3159 11.2235 18.4739 10.9665 19.6472 10.957C18.7944 18.2159 13.4291 17.7411 13.4291 17.7411H13.4383Z" fill="white" fill-opacity="0.77"/>
</g>
</g>
</g>
<defs>
<clipPath id="clip0_1_3533">
<rect width="97" height="26.01" fill="white" transform="translate(0.5)"/>
</clipPath>
</defs>
</svg>
