<svg width="105" height="28" viewBox="0 0 105 28" fill="none" xmlns="http://www.w3.org/2000/svg">
<g id="Svg Logo Kingly 3" clip-path="url(#clip0_1_4178)">
<g id="Layer 2">
<g id="Layer 1">
<path id="Vector" d="M43.7973 13.7761C43.6913 13.6482 43.6333 13.4872 43.6333 13.321C43.6333 13.1549 43.6913 12.9939 43.7973 12.8659L47.8942 7.88638C48.0566 7.6891 48.1596 7.44974 48.1912 7.19617C48.2228 6.9426 48.1818 6.68527 48.0728 6.45414C47.9638 6.22301 47.7914 6.0276 47.5757 5.89066C47.3599 5.75372 47.1097 5.6809 46.8542 5.68067H45.5076C45.2987 5.68074 45.0928 5.72924 44.9058 5.82237C44.7189 5.91549 44.5561 6.05069 44.4303 6.21735L40.355 11.6314C40.3146 11.6843 40.2585 11.7232 40.1948 11.7425C40.131 11.7617 40.0628 11.7603 39.9998 11.7385C39.9369 11.7168 39.8824 11.6757 39.8442 11.6211C39.806 11.5666 39.7859 11.5014 39.7869 11.4348V7.03122C39.7869 6.85387 39.7519 6.67824 39.6841 6.51439C39.6162 6.35053 39.5167 6.20165 39.3913 6.07623C39.2659 5.95082 39.117 5.85134 38.9532 5.78347C38.7893 5.7156 38.6137 5.68067 38.4363 5.68067H37.4141C37.2366 5.68041 37.0609 5.71516 36.8969 5.78294C36.7329 5.85072 36.584 5.9502 36.4585 6.07566C36.333 6.20112 36.2336 6.35011 36.1658 6.51408C36.098 6.67806 36.0632 6.85379 36.0635 7.03122V19.6128C36.0635 19.7901 36.0984 19.9656 36.1663 20.1294C36.2342 20.2931 36.3338 20.4419 36.4592 20.5671C36.5846 20.6924 36.7335 20.7917 36.8974 20.8593C37.0612 20.927 37.2368 20.9617 37.4141 20.9614H38.4363C38.7942 20.9614 39.1374 20.8194 39.3906 20.5666C39.6438 20.3137 39.7864 19.9707 39.7869 19.6128V15.1503C39.7859 15.0837 39.806 15.0185 39.8442 14.9639C39.8824 14.9094 39.9369 14.8683 39.9998 14.8465C40.0628 14.8248 40.131 14.8234 40.1948 14.8426C40.2585 14.8619 40.3146 14.9007 40.355 14.9537L44.5187 20.4247C44.6447 20.5899 44.8071 20.7237 44.9933 20.8158C45.1795 20.9079 45.3844 20.9557 45.5921 20.9555H46.8542C47.1101 20.9556 47.3607 20.8829 47.5768 20.7459C47.7929 20.6088 47.9656 20.4131 48.0746 20.1816C48.1837 19.9502 48.2246 19.6924 48.1926 19.4385C48.1607 19.1847 48.0572 18.9451 47.8942 18.7479L43.7973 13.7761Z" fill="#33903E"/>
<path id="Vector_2" d="M52.4533 10.665H51.4821C50.7213 10.665 50.106 11.188 50.106 11.8308V19.7946C50.106 20.4374 50.7213 20.9603 51.4821 20.9603H52.4533C53.2121 20.9603 53.8294 20.4374 53.8294 19.7946V11.8308C53.8274 11.188 53.2121 10.665 52.4533 10.665Z" fill="#33903E"/>
<path id="Vector_3" d="M67.4427 18.17C67.0212 17.1356 66.8107 16.0274 66.8234 14.9106C66.8177 14.0646 66.9349 13.2223 67.1714 12.41C67.2583 12.122 67.2458 11.8132 67.136 11.5332C67.0781 11.3863 67.0125 11.2426 66.9394 11.1027C66.5747 10.3558 66.0001 9.73136 65.2861 9.30585C64.5474 8.88439 63.7085 8.67043 62.8582 8.6866C62.0975 8.67016 61.3449 8.84596 60.6702 9.19773C60.0547 9.52133 59.5383 10.0057 59.1761 10.5994V10.1649C59.1764 9.98768 59.1417 9.8121 59.0741 9.64826C59.0064 9.48441 58.9071 9.33551 58.7818 9.21007C58.6566 9.08464 58.5078 8.98512 58.3441 8.91723C58.1803 8.84933 58.0048 8.81439 57.8276 8.81439H56.8171C56.4592 8.81491 56.1162 8.95743 55.8634 9.21065C55.6105 9.46387 55.4685 9.80709 55.4685 10.1649V19.613C55.4685 19.9706 55.6106 20.3136 55.8635 20.5666C56.1164 20.8195 56.4594 20.9615 56.8171 20.9615H57.8433C58.1982 20.9574 58.5372 20.8135 58.7867 20.561C59.0362 20.3086 59.1762 19.9679 59.1761 19.613V14.366C59.1761 13.5797 59.3826 12.9742 59.7954 12.5496C60.2102 12.121 60.7783 11.9067 61.5057 11.9067C62.2331 11.9067 62.7993 12.121 63.2141 12.5496C63.6289 12.9781 63.8353 13.5816 63.8353 14.366V19.613C63.8353 19.9706 63.9774 20.3136 64.2303 20.5666C64.4832 20.8195 64.8262 20.9615 65.1839 20.9615H66.1865C66.5441 20.9615 66.8872 20.8195 67.1401 20.5666C67.393 20.3136 67.5351 19.9706 67.5351 19.613V18.6772C67.537 18.5038 67.5056 18.3316 67.4427 18.17Z" fill="#33903E"/>
<path id="Vector_4" d="M79.5832 8.81349H78.6789C78.4932 8.81271 78.3092 8.84858 78.1374 8.91905C77.9656 8.98951 77.8093 9.09318 77.6777 9.22412C77.546 9.35506 77.4415 9.51069 77.37 9.6821C77.2986 9.85351 77.2617 10.0373 77.2615 10.223C77.2621 10.2359 77.2585 10.2487 77.2512 10.2593C77.2438 10.27 77.2332 10.2779 77.2209 10.282C77.2086 10.286 77.1954 10.2859 77.1832 10.2816C77.1709 10.2773 77.1605 10.2692 77.1534 10.2584C76.3316 9.20994 75.1776 8.68571 73.6914 8.68571C72.7108 8.67798 71.7483 8.95082 70.9176 9.47206C70.0579 10.0121 69.3613 10.776 68.9026 11.6817C68.3967 12.6792 68.1429 13.7855 68.1634 14.9038C68.1429 16.0214 68.3967 17.1271 68.9026 18.1239C69.3589 19.0287 70.0562 19.7899 70.9176 20.3237C71.7496 20.8419 72.7112 21.1145 73.6914 21.1101C74.3106 21.1224 74.9244 20.994 75.4866 20.7345C76.0489 20.475 76.5448 20.0912 76.9371 19.6121C76.9617 19.5837 76.9944 19.5635 77.0308 19.5542C77.0672 19.5448 77.1055 19.5468 77.1408 19.5598C77.176 19.5729 77.2064 19.5963 77.228 19.6271C77.2496 19.6578 77.2612 19.6944 77.2615 19.732V20.8899C77.2615 21.8794 77.0367 22.6002 76.5872 23.0523C76.3668 23.2778 76.1021 23.4552 75.8098 23.5733C75.5174 23.6914 75.2038 23.7476 74.8887 23.7384C73.7878 23.7384 73.0139 23.4534 72.567 22.8833C72.4354 22.7206 72.2687 22.5898 72.0794 22.5006C71.8902 22.4114 71.6832 22.3661 71.4739 22.3682H70.4595C70.2132 22.3685 69.9713 22.4332 69.7578 22.5559C69.5442 22.6787 69.3665 22.8551 69.2423 23.0678C69.1181 23.2805 69.0517 23.5219 69.0496 23.7682C69.0476 24.0145 69.1101 24.257 69.2309 24.4717C69.5348 25.0124 69.9585 25.4764 70.4694 25.8282C71.5585 26.5817 73.0316 26.9592 74.8887 26.9605C76.9646 26.9605 78.4993 26.3943 79.4927 25.262C80.4862 24.1296 80.9875 22.6736 80.9966 20.8938V10.223C80.9964 10.0377 80.9596 9.85417 80.8884 9.68301C80.8173 9.51186 80.7131 9.3564 80.5818 9.22552C80.4506 9.09463 80.2948 8.99088 80.1235 8.92018C79.9521 8.84948 79.7685 8.81323 79.5832 8.81349ZM76.888 16.5414C76.6577 16.9679 76.3096 17.3193 75.8854 17.5538C75.4964 17.7709 75.0589 17.8865 74.6134 17.8899C74.1638 17.8898 73.7217 17.774 73.3297 17.5538C72.9149 17.3179 72.5744 16.9706 72.3468 16.5512C72.0737 16.0481 71.9381 15.4819 71.9536 14.9097C71.9391 14.3332 72.0746 13.7628 72.3468 13.2544C72.5772 12.8286 72.9243 12.4774 73.3474 12.242C73.7375 12.0224 74.1776 11.907 74.6252 11.907C75.0729 11.907 75.513 12.0224 75.9031 12.242C76.3167 12.4794 76.6568 12.8263 76.886 13.2446C77.1529 13.7501 77.2824 14.3168 77.2615 14.8881C77.282 15.4622 77.1533 16.0318 76.888 16.5414Z" fill="#33903E"/>
<path id="Vector_5" d="M84.9964 4.85107H83.9721C83.6145 4.85107 83.2714 4.99316 83.0185 5.24607C82.7656 5.49898 82.6235 5.842 82.6235 6.19967V19.6109C82.6235 19.9686 82.7656 20.3116 83.0185 20.5645C83.2714 20.8174 83.6145 20.9595 83.9721 20.9595H84.9964C85.354 20.9595 85.697 20.8174 85.95 20.5645C86.2029 20.3116 86.3449 19.9686 86.3449 19.6109V6.19967C86.3449 5.842 86.2029 5.49898 85.95 5.24607C85.697 4.99316 85.354 4.85107 84.9964 4.85107Z" fill="#33903E"/>
<path id="Vector_6" d="M97.7042 13.6618C96.6477 12.9667 95.9026 11.8882 95.6263 10.654L94.032 14.9416C93.9815 15.0751 93.8911 15.1898 93.7731 15.2701C93.655 15.3503 93.5151 15.3922 93.3724 15.3901C93.2297 15.3879 93.0911 15.3418 92.9755 15.2581C92.86 15.1743 92.7731 15.0569 92.7266 14.9219L90.9573 9.73202C90.867 9.46519 90.6954 9.23336 90.4666 9.06906C90.2377 8.90475 89.9632 8.81623 89.6815 8.81592H88.4115C88.1912 8.81568 87.9741 8.86944 87.7793 8.97251C87.5845 9.07558 87.418 9.22482 87.2942 9.40716C87.1704 9.5895 87.0933 9.79939 87.0694 10.0185C87.0455 10.2375 87.0757 10.4591 87.1573 10.6638L90.8591 19.9939C91.0437 20.4614 91.036 20.9829 90.8374 21.4447L89.367 24.8712C89.2787 25.0764 89.2429 25.3002 89.2625 25.5226C89.2821 25.745 89.3567 25.959 89.4794 26.1455C89.6022 26.332 89.7693 26.4851 89.9659 26.5911C90.1624 26.697 90.3822 26.7525 90.6055 26.7526H91.5687C91.8319 26.7528 92.0893 26.6758 92.3091 26.5311C92.5289 26.3865 92.7014 26.1805 92.8053 25.9387L98.0168 13.8761L97.7042 13.6618Z" fill="#33903E"/>
<path id="Vector_7" d="M99.4427 12.1192C99.4427 12.1192 102.226 8.9227 97.2429 4.95752C97.2429 4.95752 94.9153 10.1946 98.737 12.764C98.737 12.764 99.6787 10.9377 98.0116 8.06164C98.0116 8.05967 100.086 9.78572 99.4427 12.1192Z" fill="#FF7400"/>
<path id="Vector_8" d="M100.558 7.52726C100.558 7.52726 100.302 4.79469 104.423 4.604C104.423 4.604 103.662 8.23105 100.688 8.14258C100.688 8.14258 100.884 6.82741 102.85 5.94866C102.844 5.9408 101.104 6.06072 100.558 7.52726Z" fill="#FF7400"/>
<path id="Vector_9" d="M51.9642 9.0353C52.8642 9.0353 53.5939 8.30566 53.5939 7.40559C53.5939 6.50553 52.8642 5.77588 51.9642 5.77588C51.0641 5.77588 50.3344 6.50553 50.3344 7.40559C50.3344 8.30566 51.0641 9.0353 51.9642 9.0353Z" fill="#FF7400"/>
<path id="Vector_10" d="M14.001 0C11.2319 0 8.52491 0.821143 6.22246 2.35959C3.92001 3.89804 2.12547 6.08469 1.06577 8.64304C0.00606641 11.2014 -0.2712 14.0165 0.269031 16.7324C0.809262 19.4484 2.14273 21.9431 4.1008 23.9012C6.05887 25.8592 8.55361 27.1927 11.2695 27.7329C13.9855 28.2732 16.8006 27.9959 19.3589 26.9362C21.9173 25.8765 24.1039 24.082 25.6424 21.7795C27.1808 19.4771 28.002 16.7701 28.002 14.001C28.002 12.1623 27.6398 10.3417 26.9362 8.64304C26.2326 6.94436 25.2013 5.4009 23.9012 4.10079C22.6011 2.80068 21.0576 1.76938 19.3589 1.06576C17.6603 0.362146 15.8396 0 14.001 0ZM14.001 25.985C11.6292 25.985 9.31072 25.2817 7.33867 23.964C5.36662 22.6463 3.82959 20.7734 2.92196 18.5822C2.01432 16.391 1.77685 13.9798 2.23955 11.6536C2.70226 9.32743 3.84438 7.19069 5.52147 5.5136C7.19856 3.83651 9.3353 2.69439 11.6615 2.23168C13.9877 1.76898 16.3988 2.00645 18.5901 2.91409C20.7813 3.82172 22.6542 5.35875 23.9719 7.3308C25.2895 9.30285 25.9928 11.6214 25.9928 13.9931C25.9928 17.1736 24.7294 20.2237 22.4805 22.4726C20.2316 24.7216 17.1814 25.985 14.001 25.985Z" fill="#FF7400"/>
<path id="Vector_11" d="M14.0042 2.01758C11.6324 2.01758 9.31388 2.72089 7.34183 4.03857C5.36978 5.35625 3.83276 7.22912 2.92512 9.42035C2.01749 11.6116 1.78001 14.0227 2.24272 16.3489C2.70542 18.6751 3.84754 20.8119 5.52463 22.489C7.20172 24.166 9.33846 25.3082 11.6647 25.7709C13.9908 26.2336 16.402 25.9961 18.5932 25.0885C20.7845 24.1808 22.6573 22.6438 23.975 20.6718C25.2927 18.6997 25.996 16.3812 25.996 14.0094C25.996 10.829 24.7326 7.77882 22.4837 5.52991C20.2348 3.281 17.1846 2.01758 14.0042 2.01758ZM11.6451 17.9569C11.8335 18.0547 12.031 18.1337 12.2349 18.1928C12.2349 18.1928 8.12421 18.871 7.39684 12.6667C7.39684 12.6667 7.59342 12.6923 7.89814 12.765H7.90993C9.26245 13.0756 12.8246 14.2237 13.1136 17.7053C13.1136 17.782 13.1136 17.8586 13.1274 17.9353C13.1274 17.9353 11.5114 17.8095 10.0744 15.7138C9.8958 15.4542 9.73236 15.1844 9.58486 14.9059C9.58486 14.9059 9.88564 17.0565 11.6353 17.9569H11.6451ZM13.554 14.4459C13.554 14.4459 12.8325 13.3902 13.5088 11.4774C13.55 11.3594 13.5972 11.2395 13.6483 11.1176C13.6483 11.1176 12.4177 12.4328 12.9681 13.9524C12.9799 13.9878 12.9937 14.0232 13.0075 14.0586C13.0075 14.0586 10.7939 12.0809 13.9157 8.89422C13.9157 8.89422 15.5021 11.5305 14.2617 13.6123C14.2165 13.689 14.1654 13.7676 14.1123 13.8443C14.0592 13.921 14.0376 13.9446 13.9963 13.9937C13.9139 14.0955 13.826 14.1926 13.7329 14.2847C13.668 14.3358 13.607 14.3908 13.5441 14.4459H13.554ZM13.9294 19.0971C14.1044 19.0028 14.2715 18.9005 14.4347 18.8062C17.698 16.8049 18.681 13.8246 18.7478 13.632C18.5612 13.9847 18.3342 14.3145 18.0716 14.6149C16.5342 16.3842 13.9196 17.3475 13.9196 17.3475C13.9196 17.2846 13.9196 17.2197 13.9314 17.1509C14.0887 14.6562 15.4825 13.3214 16.9549 12.6058C18.1037 12.0808 19.3504 11.8042 20.6134 11.7939C19.6954 19.6083 13.9196 19.0971 13.9196 19.0971H13.9294Z" fill="#33903E"/>
</g>
</g>
</g>
<defs>
<clipPath id="clip0_1_4178">
<rect width="104.422" height="28" fill="white"/>
</clipPath>
</defs>
</svg>
