<svg width="15" height="15" viewBox="0 0 15 15" fill="none" xmlns="http://www.w3.org/2000/svg">
<g id="vuesax/twotone/filter">
<g id="filter">
<path id="Vector" d="M3.43453 1.50928H11.4226C12.0883 1.50928 12.6329 2.05392 12.6329 2.71959V4.05094C12.6329 4.53507 12.3304 5.14023 12.0278 5.44281L9.4256 7.74241C9.06251 8.04499 8.82044 8.65015 8.82044 9.13428V11.7365C8.82044 12.0996 8.57838 12.5837 8.2758 12.7652L7.42858 13.3099C6.64187 13.794 5.55259 13.2494 5.55259 12.2811V9.07376C5.55259 8.65015 5.31052 8.10551 5.06846 7.80293L2.76886 5.38229C2.46628 5.07971 2.22421 4.53507 2.22421 4.17198V2.78011C2.22421 2.05392 2.76886 1.50928 3.43453 1.50928Z" stroke="#292D32" stroke-width="0.907738" stroke-miterlimit="10" stroke-linecap="round" stroke-linejoin="round"/>
<path id="Vector_2" opacity="0.4" d="M6.78106 1.50928L3.79762 6.29003" stroke="#292D32" stroke-width="0.907738" stroke-miterlimit="10" stroke-linecap="round" stroke-linejoin="round"/>
</g>
</g>
</svg>
