<svg xmlns="http://www.w3.org/2000/svg" width="1440" height="813" viewBox="0 0 1440 813" fill="none">
  <g filter="url(#filter0_f_1_3570)">
    <path d="M-294 421.5C-125 405.667 228.8 364.2 292 325C355.2 285.8 413.667 190.667 435 148C432.333 191.5 436.5 285.6 474.5 314C522 349.5 665.5 419 959 462.5C1050.98 476.132 1119.97 486.321 1170.67 493.784C1218.03 499.919 1259.52 506.098 1292 511.5C1283.99 510.385 1249.39 505.372 1170.67 493.784C987.177 470.013 715.592 446.883 538.5 472C333.031 501.142 -68.815 596.877 -286.168 651.594C-304.486 656.403 -321.607 660.738 -337 664.5C-321.521 660.533 -304.501 656.21 -286.168 651.594C-135.699 612.092 95.5272 540.566 113 491C132.6 435.4 -150.167 421.5 -294 421.5Z" fill="#D9790C" fill-opacity="0.24"/>
  </g>
  <defs>
    <filter id="filter0_f_1_3570" x="-485" y="0" width="1925" height="812.5" filterUnits="userSpaceOnUse" color-interpolation-filters="sRGB">
      <feFlood flood-opacity="0" result="BackgroundImageFix"/>
      <feBlend mode="normal" in="SourceGraphic" in2="BackgroundImageFix" result="shape"/>
      <feGaussianBlur stdDeviation="74" result="effect1_foregroundBlur_1_3570"/>
    </filter>
  </defs>
</svg>