<svg width="25" height="24" viewBox="0 0 25 24" fill="none" xmlns="http://www.w3.org/2000/svg">
<g id="vuesax/outline/menu">
<g id="menu">
<path id="Vector" d="M21.4215 7.75H3.42154C3.01154 7.75 2.67154 7.41 2.67154 7C2.67154 6.59 3.01154 6.25 3.42154 6.25H21.4215C21.8315 6.25 22.1715 6.59 22.1715 7C22.1715 7.41 21.8315 7.75 21.4215 7.75Z" fill="#292D32"/>
<path id="Vector_2" d="M21.4215 12.75H3.42154C3.01154 12.75 2.67154 12.41 2.67154 12C2.67154 11.59 3.01154 11.25 3.42154 11.25H21.4215C21.8315 11.25 22.1715 11.59 22.1715 12C22.1715 12.41 21.8315 12.75 21.4215 12.75Z" fill="#292D32"/>
<path id="Vector_3" d="M21.4215 17.75H3.42154C3.01154 17.75 2.67154 17.41 2.67154 17C2.67154 16.59 3.01154 16.25 3.42154 16.25H21.4215C21.8315 16.25 22.1715 16.59 22.1715 17C22.1715 17.41 21.8315 17.75 21.4215 17.75Z" fill="#292D32"/>
</g>
</g>
</svg>
