<svg class="svg-icon" style="width: 1em;height: 1em;vertical-align: middle;fill: currentColor;overflow: hidden;" viewBox="0 0 1024 1024" version="1.1" xmlns="http://www.w3.org/2000/svg"><path d="M485.504 431.829333a21.333333 21.333333 0 0 1-15.104-36.394666l181.034667-181.034667a21.333333 21.333333 0 1 1 30.165333 30.165333l-181.034667 181.034667a21.248 21.248 0 0 1-15.061333 6.229333z"  /><path d="M666.496 431.829333a21.248 21.248 0 0 1-15.061333-6.229333l-181.034667-181.034667a21.333333 21.333333 0 1 1 30.165333-30.165333l181.034667 181.034667a21.333333 21.333333 0 0 1-15.104 36.394666zM384 917.333333a106.666667 106.666667 0 1 1 106.666667-106.666666A106.752 106.752 0 0 1 384 917.333333z m0-170.666666a64 64 0 1 0 64 64A64.085333 64.085333 0 0 0 384 746.666667zM725.333333 917.333333a106.666667 106.666667 0 1 1 106.666667-106.666666 106.752 106.752 0 0 1-106.666667 106.666666z m0-170.666666a64 64 0 1 0 64 64 64.085333 64.085333 0 0 0-64-64z"  /><path d="M320 682.666667a21.333333 21.333333 0 0 1-21.333333-21.333334C298.666667 315.52 225.408 212.906667 181.76 182.485333a76.117333 76.117333 0 0 0-67.413333-13.226666 21.632 21.632 0 0 1-27.477334-12.288 21.248 21.248 0 0 1 11.861334-27.434667 118.058667 118.058667 0 0 1 105.813333 16.896c88.234667 59.733333 134.186667 225.109333 136.661333 491.733333l459.648-38.272a21.504 21.504 0 0 0 18.730667-15.445333l62.634667-261.845333a21.12 21.12 0 0 1 25.685333-15.786667 21.333333 21.333333 0 0 1 15.786667 25.728l-62.848 262.741333a64.64 64.64 0 0 1-56.405334 47.104l-482.645333 40.192L320 682.666667z"  /></svg>